<svg width="414" height="414" viewBox="0 0 414 414" fill="none" xmlns="http://www.w3.org/2000/svg">
<g filter="url(#filter0_i_71_518)">
<path d="M330.164 223.215C330.854 218.04 331.199 212.692 331.199 207C331.199 201.48 330.854 195.96 329.992 190.785L365.009 163.53C368.114 161.115 368.977 156.457 367.079 153.007L333.959 95.7373C331.889 91.9423 327.577 90.7348 323.782 91.9423L282.554 108.502C273.929 101.947 264.787 96.4273 254.609 92.2873L248.399 48.4723C247.709 44.3323 244.259 41.3998 240.119 41.3998H173.879C169.739 41.3998 166.462 44.3323 165.772 48.4723L159.562 92.2873C149.384 96.4273 140.069 102.12 131.617 108.502L90.3894 91.9423C86.5944 90.5623 82.282 91.9423 80.212 95.7373L47.2645 153.007C45.1945 156.63 45.8844 161.115 49.3344 163.53L84.3519 190.785C83.4894 195.96 82.7995 201.652 82.7995 207C82.7995 212.347 83.1444 218.04 84.007 223.215L48.9894 250.47C45.8844 252.885 45.022 257.542 46.9195 260.992L80.0394 318.262C82.1094 322.057 86.422 323.265 90.2169 322.057L131.444 305.497C140.069 312.052 149.212 317.572 159.389 321.712L165.599 365.527C166.462 369.667 169.739 372.6 173.879 372.6H240.119C244.259 372.6 247.709 369.667 248.227 365.527L254.437 321.712C264.614 317.572 273.929 312.052 282.382 305.497L323.609 322.057C327.404 323.437 331.717 322.057 333.787 318.262L366.907 260.992C368.977 257.197 368.114 252.885 364.837 250.47L330.164 223.215ZM206.999 269.1C172.844 269.1 144.899 241.155 144.899 207C144.899 172.845 172.844 144.9 206.999 144.9C241.154 144.9 269.099 172.845 269.099 207C269.099 241.155 241.154 269.1 206.999 269.1Z" fill="white" fill-opacity="0.24"/>
</g>
<defs>
<filter id="filter0_i_71_518" x="45.9189" y="41.3998" width="322.161" height="335.2" filterUnits="userSpaceOnUse" color-interpolation-filters="sRGB">
<feFlood flood-opacity="0" result="BackgroundImageFix"/>
<feBlend mode="normal" in="SourceGraphic" in2="BackgroundImageFix" result="shape"/>
<feColorMatrix in="SourceAlpha" type="matrix" values="0 0 0 0 0 0 0 0 0 0 0 0 0 0 0 0 0 0 127 0" result="hardAlpha"/>
<feOffset dy="4"/>
<feGaussianBlur stdDeviation="2"/>
<feComposite in2="hardAlpha" operator="arithmetic" k2="-1" k3="1"/>
<feColorMatrix type="matrix" values="0 0 0 0 0 0 0 0 0 0 0 0 0 0 0 0 0 0 0.25 0"/>
<feBlend mode="normal" in2="shape" result="effect1_innerShadow_71_518"/>
</filter>
</defs>
</svg>
