<svg width="336" height="336" viewBox="0 0 336 336" fill="none" xmlns="http://www.w3.org/2000/svg">
<g filter="url(#filter0_i_71_565)">
<path d="M48 48C48 21.4903 69.4903 0 96 0C122.51 0 144 21.4903 144 48C144 63.4742 136.678 77.2383 125.309 86.016C124.967 86.2682 124.627 86.5236 124.29 86.7816C116.357 92.5783 106.578 96 96 96C69.4903 96 48 74.5097 48 48Z" fill="white" fill-opacity="0.22"/>
<path d="M210.691 86.016C211.033 86.2682 211.373 86.5236 211.71 86.7818C219.643 92.5786 229.423 96 240 96C266.51 96 288 74.5097 288 48C288 21.4903 266.51 0 240 0C213.49 0 192 21.4903 192 48C192 63.4742 199.322 77.2383 210.691 86.016Z" fill="white" fill-opacity="0.22"/>
<path d="M126.421 120C134.721 105.653 150.233 96.0001 168 96.0001C185.767 96.0001 201.279 105.653 209.579 120C213.663 127.06 216 135.257 216 144C216 170.51 194.51 192 168 192C141.49 192 120 170.51 120 144C120 135.257 122.337 127.06 126.421 120Z" fill="white" fill-opacity="0.22"/>
<path d="M35.9995 120H100.097C97.4436 127.507 96 135.585 96 144C96 162.44 102.932 179.262 114.333 192H108C81.9562 192 59.7888 208.593 51.4913 231.782C43.3322 228.463 35.7835 224.126 29.0916 218.755C11.0153 204.246 0 182.786 0 156C0 136.119 16.1174 120 35.9995 120Z" fill="white" fill-opacity="0.22"/>
<path d="M228 192C254.042 192 276.211 208.593 284.508 231.782C292.668 228.463 300.216 224.126 306.909 218.755C324.984 204.246 336 182.786 336 156C336 136.118 319.881 120 300 120H235.903C238.555 127.507 240 135.585 240 144C240 162.44 233.066 179.262 221.666 192H228Z" fill="white" fill-opacity="0.22"/>
<path d="M261.29 238.272C263.035 242.503 264 247.14 264 252C264 278.786 252.984 300.247 234.91 314.755C217.118 329.035 193.274 336 168 336C142.726 336 118.882 329.035 101.092 314.755C83.0153 300.247 72 278.786 72 252C72 247.14 72.9636 242.503 74.7101 238.272C80.1067 225.199 92.9786 216 108 216H228C243.022 216 255.893 225.199 261.29 238.272Z" fill="white" fill-opacity="0.22"/>
</g>
<defs>
<filter id="filter0_i_71_565" x="0" y="0" width="336" height="340" filterUnits="userSpaceOnUse" color-interpolation-filters="sRGB">
<feFlood flood-opacity="0" result="BackgroundImageFix"/>
<feBlend mode="normal" in="SourceGraphic" in2="BackgroundImageFix" result="shape"/>
<feColorMatrix in="SourceAlpha" type="matrix" values="0 0 0 0 0 0 0 0 0 0 0 0 0 0 0 0 0 0 127 0" result="hardAlpha"/>
<feOffset dy="4"/>
<feGaussianBlur stdDeviation="2"/>
<feComposite in2="hardAlpha" operator="arithmetic" k2="-1" k3="1"/>
<feColorMatrix type="matrix" values="0 0 0 0 0 0 0 0 0 0 0 0 0 0 0 0 0 0 0.25 0"/>
<feBlend mode="normal" in2="shape" result="effect1_innerShadow_71_565"/>
</filter>
</defs>
</svg>
