<svg width="350" height="385" viewBox="0 0 350 385" fill="none" xmlns="http://www.w3.org/2000/svg">
<g filter="url(#filter0_i_71_612)">
<path d="M282.304 128.165C282.304 97.8036 270.998 68.6862 250.87 47.2178C230.743 25.7492 203.446 13.6884 174.982 13.6884C146.519 13.6884 119.221 25.7492 99.0946 47.2178C78.9679 68.6862 67.6608 97.8036 67.6608 128.165C67.6608 261.721 14 299.879 14 299.879H335.965C335.965 299.879 282.304 261.721 282.304 128.165Z" stroke="white" stroke-opacity="0.21" stroke-width="26.8304" stroke-linecap="round" stroke-linejoin="round"/>
<path d="M205.927 353.54C202.783 358.962 198.27 363.462 192.838 366.589C187.407 369.717 181.251 371.364 174.983 371.364C168.715 371.364 162.559 369.717 157.128 366.589C151.698 363.462 147.183 358.962 144.039 353.54" stroke="white" stroke-opacity="0.21" stroke-width="26.8304" stroke-linecap="round" stroke-linejoin="round"/>
</g>
<defs>
<filter id="filter0_i_71_612" x="0.583984" y="0.273132" width="348.797" height="388.507" filterUnits="userSpaceOnUse" color-interpolation-filters="sRGB">
<feFlood flood-opacity="0" result="BackgroundImageFix"/>
<feBlend mode="normal" in="SourceGraphic" in2="BackgroundImageFix" result="shape"/>
<feColorMatrix in="SourceAlpha" type="matrix" values="0 0 0 0 0 0 0 0 0 0 0 0 0 0 0 0 0 0 127 0" result="hardAlpha"/>
<feOffset dy="4"/>
<feGaussianBlur stdDeviation="2"/>
<feComposite in2="hardAlpha" operator="arithmetic" k2="-1" k3="1"/>
<feColorMatrix type="matrix" values="0 0 0 0 0 0 0 0 0 0 0 0 0 0 0 0 0 0 0.25 0"/>
<feBlend mode="normal" in2="shape" result="effect1_innerShadow_71_612"/>
</filter>
</defs>
</svg>
