<svg width="29" height="31" viewBox="0 0 29 31" fill="none" xmlns="http://www.w3.org/2000/svg">
<path d="M28.2707 22.5984C27.9644 22.0516 27.5926 21.5047 27.1769 20.925C26.1879 19.69 25.5024 18.2402 25.1754 16.6922L24.716 10.2391C24.4426 5.24062 21.5222 0.1875 15.7144 0.1875H13.2863C7.4785 0.1875 4.53631 5.24063 4.241 10.2281L3.78162 16.6922C3.45602 18.2539 2.77068 19.7182 1.78006 20.9688C1.40819 21.5375 1.03631 22.0625 0.78475 22.5547C0.514766 22.917 0.351254 23.3475 0.312608 23.7978C0.273963 24.248 0.361718 24.7001 0.566 25.1031C0.80434 25.5264 1.15546 25.8753 1.58029 26.1108C2.00511 26.3464 2.48697 26.4595 2.97225 26.4375H11.416C11.2361 26.9331 11.1783 27.4648 11.2475 27.9875C11.3167 28.5102 11.5108 29.0085 11.8134 29.4402C12.116 29.872 12.5182 30.2245 12.9859 30.4678C13.4536 30.7112 13.9731 30.8382 14.5004 30.8382C15.0276 30.8382 15.5471 30.7112 16.0148 30.4678C16.4826 30.2245 16.8848 29.872 17.1874 29.4402C17.49 29.0085 17.6841 28.5102 17.7533 27.9875C17.8224 27.4648 17.7646 26.9331 17.5847 26.4375H26.0285C26.5182 26.4553 27.0032 26.3357 27.4284 26.0921C27.8537 25.8485 28.2023 25.4908 28.4347 25.0594C28.6392 24.6746 28.7321 24.2403 28.7032 23.8055C28.6742 23.3708 28.5244 22.9527 28.2707 22.5984ZM15.5941 27.5312C15.5941 27.7476 15.53 27.959 15.4098 28.1389C15.2896 28.3188 15.1188 28.459 14.9189 28.5417C14.7191 28.6245 14.4992 28.6462 14.287 28.604C14.0748 28.5618 13.8799 28.4576 13.727 28.3046C13.574 28.1517 13.4698 27.9568 13.4276 27.7446C13.3854 27.5325 13.4071 27.3125 13.4899 27.1127C13.5727 26.9128 13.7129 26.742 13.8927 26.6218C14.0726 26.5016 14.284 26.4375 14.5004 26.4375C14.7905 26.4375 15.0687 26.5527 15.2738 26.7579C15.4789 26.963 15.5941 27.2412 15.5941 27.5312ZM26.5316 24.0641C26.5316 24.1516 26.3457 24.25 26.0722 24.25H2.97225C2.69881 24.25 2.55662 24.1516 2.51288 24.0641C2.46913 23.9766 2.51287 23.8562 2.62225 23.6812C2.91756 23.1781 3.25662 22.6531 3.60662 22.1281C4.70037 20.5531 5.79412 18.7594 5.95819 16.8453L6.4285 10.3812C6.65819 6.68437 8.59412 2.375 13.2863 2.375H15.7144C20.4066 2.375 22.3426 6.68437 22.5722 10.3922L23.0426 16.8453C23.1738 18.7812 24.3441 20.5531 25.4379 22.1281C25.7879 22.6531 26.1269 23.2219 26.4769 23.7797C26.5118 23.8172 26.5353 23.8638 26.545 23.914C26.5547 23.9643 26.55 24.0163 26.5316 24.0641Z" fill="white"/>
</svg>
