<svg width="31" height="31" viewBox="0 0 31 31" fill="none" xmlns="http://www.w3.org/2000/svg">
<path d="M7.78516 15.5706H5.59766V5.72681H7.78516V15.5706ZM16.5352 5.72681H14.3477V15.5706H16.5352V5.72681ZM23.0977 15.5706H25.2852V5.72681H23.0977V15.5706ZM30.7539 28.6956V30.8831H0.128906V28.6956H1.22266V3.53931C1.22266 2.66906 1.56836 1.83447 2.18371 1.21911C2.79907 0.603759 3.63366 0.258057 4.50391 0.258057H8.87891C9.68834 0.262881 10.4674 0.566725 11.0664 1.11118C11.6654 0.566725 12.4445 0.262881 13.2539 0.258057H17.6289C18.4383 0.262881 19.2174 0.566725 19.8164 1.11118C20.4154 0.566725 21.1945 0.262881 22.0039 0.258057H26.3789C27.2491 0.258057 28.0837 0.603759 28.6991 1.21911C29.3145 1.83447 29.6602 2.66906 29.6602 3.53931V28.6956H30.7539ZM3.41016 28.6956H5.59766V19.9456H7.78516V28.6956H9.97266V3.53931C9.97266 3.24923 9.85742 2.97103 9.6523 2.76591C9.44719 2.56079 9.16899 2.44556 8.87891 2.44556H4.50391C4.21383 2.44556 3.93563 2.56079 3.73051 2.76591C3.52539 2.97103 3.41016 3.24923 3.41016 3.53931V28.6956ZM12.1602 28.6956H14.3477V19.9456H16.5352V28.6956H18.7227V3.53931C18.7227 3.24923 18.6074 2.97103 18.4023 2.76591C18.1972 2.56079 17.919 2.44556 17.6289 2.44556H13.2539C12.9638 2.44556 12.6856 2.56079 12.4805 2.76591C12.2754 2.97103 12.1602 3.24923 12.1602 3.53931V28.6956ZM27.4727 28.6956V3.53931C27.4727 3.24923 27.3574 2.97103 27.1523 2.76591C26.9472 2.56079 26.669 2.44556 26.3789 2.44556H22.0039C21.7138 2.44556 21.4356 2.56079 21.2305 2.76591C21.0254 2.97103 20.9102 3.24923 20.9102 3.53931V28.6956H23.0977V19.9456H25.2852V28.6956H27.4727Z" fill="white"/>
</svg>
