<svg width="55" height="55" viewBox="0 0 55 55" fill="none" xmlns="http://www.w3.org/2000/svg">
<g filter="url(#filter0_i_71_142)">
<g filter="url(#filter1_f_71_142)">
<path d="M49.2709 34.3752C49.2658 32.9995 48.8481 31.657 48.0719 30.5213C47.2957 29.3855 46.1966 28.5088 44.9167 28.0044L49.2021 11.9627C49.2916 11.621 49.301 11.2633 49.2294 10.9175C49.1579 10.5716 49.0074 10.247 48.7896 9.96893C48.567 9.70839 48.2888 9.50107 47.9755 9.36226C47.6622 9.22345 47.3217 9.15668 46.9792 9.16685H15.5834L14.8271 6.27935C14.6956 5.79102 14.4063 5.3599 14.0042 5.05316C13.6022 4.74642 13.1099 4.5813 12.6042 4.58352H8.02087V9.16685H10.8396L16.523 30.3877C16.6573 30.8876 16.9569 31.3274 17.373 31.6353C17.7891 31.9433 18.2973 32.1012 18.8146 32.0835H42.3959C43.0037 32.0835 43.5866 32.325 44.0163 32.7547C44.4461 33.1845 44.6875 33.7674 44.6875 34.3752C44.6875 34.983 44.4461 35.5659 44.0163 35.9956C43.5866 36.4254 43.0037 36.6669 42.3959 36.6669H12.6042C11.9964 36.6669 11.4135 36.9083 10.9838 37.3381C10.554 37.7678 10.3125 38.3507 10.3125 38.9585C10.3125 39.5663 10.554 40.1492 10.9838 40.579C11.4135 41.0087 11.9964 41.2502 12.6042 41.2502H15.3084C14.9315 42.2886 14.8104 43.4026 14.9553 44.4977C15.1002 45.5929 15.5069 46.637 16.141 47.5416C16.775 48.4463 17.6177 49.1848 18.5977 49.6947C19.5777 50.2046 20.6662 50.4708 21.7709 50.4708C22.8756 50.4708 23.964 50.2046 24.944 49.6947C25.924 49.1848 26.7667 48.4463 27.4008 47.5416C28.0348 46.637 28.4415 45.5929 28.5865 44.4977C28.7314 43.4026 28.6103 42.2886 28.2334 41.2502H33.6417C33.2986 42.1957 33.1672 43.2051 33.2567 44.207C33.3462 45.2088 33.6545 46.1789 34.1597 47.0486C34.665 47.9184 35.355 48.6667 36.181 49.2407C37.007 49.8148 37.9489 50.2006 38.9402 50.3709C39.9316 50.5412 40.9482 50.492 41.9184 50.2266C42.8887 49.9611 43.7888 49.4861 44.5554 48.8348C45.3221 48.1836 45.9364 47.3721 46.3552 46.4576C46.774 45.543 46.987 44.5477 46.9792 43.5419C46.975 42.3579 46.6588 41.196 46.0625 40.1731C47.0425 39.5553 47.8504 38.6998 48.4113 37.6862C48.9722 36.6726 49.2679 35.5336 49.2709 34.3752ZM40.3105 27.5002H20.625L16.8209 13.7502H44L40.3105 27.5002ZM21.7709 45.8335C21.3176 45.8335 20.8746 45.6991 20.4977 45.4473C20.1208 45.1955 19.8271 44.8376 19.6537 44.4188C19.4802 44.0001 19.4348 43.5393 19.5232 43.0948C19.6117 42.6502 19.8299 42.2419 20.1504 41.9214C20.4709 41.6009 20.8793 41.3826 21.3238 41.2942C21.7683 41.2058 22.2291 41.2512 22.6479 41.4246C23.0666 41.5981 23.4245 41.8918 23.6763 42.2687C23.9281 42.6455 24.0625 43.0886 24.0625 43.5419C24.0625 44.1496 23.8211 44.7325 23.3913 45.1623C22.9616 45.5921 22.3787 45.8335 21.7709 45.8335ZM40.1042 45.8335C39.651 45.8335 39.2079 45.6991 38.831 45.4473C38.4542 45.1955 38.1604 44.8376 37.987 44.4188C37.8135 44.0001 37.7682 43.5393 37.8566 43.0948C37.945 42.6502 38.1633 42.2419 38.4838 41.9214C38.8042 41.6009 39.2126 41.3826 39.6571 41.2942C40.1017 41.2058 40.5624 41.2512 40.9812 41.4246C41.3999 41.5981 41.7579 41.8918 42.0097 42.2687C42.2615 42.6455 42.3959 43.0886 42.3959 43.5419C42.3959 44.1496 42.1544 44.7325 41.7247 45.1623C41.2949 45.5921 40.712 45.8335 40.1042 45.8335Z" fill="white"/>
</g>
</g>
<defs>
<filter id="filter0_i_71_142" x="0" y="0" width="55" height="59" filterUnits="userSpaceOnUse" color-interpolation-filters="sRGB">
<feFlood flood-opacity="0" result="BackgroundImageFix"/>
<feBlend mode="normal" in="SourceGraphic" in2="BackgroundImageFix" result="shape"/>
<feColorMatrix in="SourceAlpha" type="matrix" values="0 0 0 0 0 0 0 0 0 0 0 0 0 0 0 0 0 0 127 0" result="hardAlpha"/>
<feOffset dy="4"/>
<feGaussianBlur stdDeviation="2"/>
<feComposite in2="hardAlpha" operator="arithmetic" k2="-1" k3="1"/>
<feColorMatrix type="matrix" values="0 0 0 0 0 0 0 0 0 0 0 0 0 0 0 0 0 0 0.25 0"/>
<feBlend mode="normal" in2="shape" result="effect1_innerShadow_71_142"/>
</filter>
<filter id="filter1_f_71_142" x="4.02087" y="0.583496" width="49.2561" height="53.8872" filterUnits="userSpaceOnUse" color-interpolation-filters="sRGB">
<feFlood flood-opacity="0" result="BackgroundImageFix"/>
<feBlend mode="normal" in="SourceGraphic" in2="BackgroundImageFix" result="shape"/>
<feGaussianBlur stdDeviation="2" result="effect1_foregroundBlur_71_142"/>
</filter>
</defs>
</svg>
