<svg width="55" height="55" viewBox="0 0 55 55" fill="none" xmlns="http://www.w3.org/2000/svg">
<g filter="url(#filter0_i_61_162)">
<path d="M49.2708 34.375C49.2657 32.9993 48.8481 31.6568 48.0718 30.5211C47.2956 29.3853 46.1965 28.5086 44.9166 28.0042L49.2021 11.9625C49.2916 11.6209 49.3009 11.2632 49.2294 10.9173C49.1578 10.5715 49.0073 10.2468 48.7896 9.96875C48.567 9.7082 48.2888 9.50089 47.9755 9.36208C47.6621 9.22327 47.3217 9.15649 46.9791 9.16667H15.5833L14.8271 6.27917C14.6956 5.79084 14.4063 5.35972 14.0042 5.05298C13.6021 4.74624 13.1099 4.58112 12.6041 4.58334H8.02081V9.16667H10.8396L16.5229 30.3875C16.6572 30.8875 16.9568 31.3272 17.3729 31.6352C17.7891 31.9431 18.2972 32.1011 18.8146 32.0833H42.3958C43.0036 32.0833 43.5865 32.3248 44.0163 32.7545C44.446 33.1843 44.6875 33.7672 44.6875 34.375C44.6875 34.9828 44.446 35.5657 44.0163 35.9955C43.5865 36.4252 43.0036 36.6667 42.3958 36.6667H12.6041C11.9964 36.6667 11.4135 36.9081 10.9837 37.3379C10.5539 37.7677 10.3125 38.3505 10.3125 38.9583C10.3125 39.5661 10.5539 40.149 10.9837 40.5788C11.4135 41.0086 11.9964 41.25 12.6041 41.25H15.3083C14.9314 42.2884 14.8103 43.4024 14.9552 44.4975C15.1002 45.5927 15.5069 46.6368 16.1409 47.5414C16.775 48.4461 17.6177 49.1846 18.5977 49.6945C19.5777 50.2044 20.6661 50.4706 21.7708 50.4706C22.8755 50.4706 23.964 50.2044 24.944 49.6945C25.924 49.1846 26.7667 48.4461 27.4007 47.5414C28.0347 46.6368 28.4415 45.5927 28.5864 44.4975C28.7313 43.4024 28.6102 42.2884 28.2333 41.25H33.6416C33.2986 42.1956 33.1671 43.2049 33.2566 44.2068C33.3461 45.2087 33.6544 46.1787 34.1597 47.0485C34.6649 47.9182 35.3549 48.6665 36.1809 49.2406C37.0069 49.8146 37.9488 50.2004 38.9401 50.3707C39.9315 50.5411 40.9481 50.4918 41.9184 50.2264C42.8886 49.961 43.7888 49.4859 44.5554 48.8347C45.322 48.1834 45.9364 47.3719 46.3552 46.4574C46.7739 45.5428 46.9869 44.5475 46.9791 43.5417C46.9749 42.3577 46.6587 41.1958 46.0625 40.1729C47.0424 39.5551 47.8504 38.6996 48.4113 37.686C48.9722 36.6724 49.2678 35.5335 49.2708 34.375ZM40.3104 27.5H20.625L16.8208 13.75H44L40.3104 27.5ZM21.7708 45.8333C21.3176 45.8333 20.8745 45.6989 20.4976 45.4471C20.1208 45.1953 19.827 44.8374 19.6536 44.4187C19.4801 43.9999 19.4348 43.5391 19.5232 43.0946C19.6116 42.65 19.8299 42.2417 20.1504 41.9212C20.4709 41.6007 20.8792 41.3825 21.3237 41.294C21.7683 41.2056 22.229 41.251 22.6478 41.4244C23.0665 41.5979 23.4245 41.8916 23.6763 42.2685C23.9281 42.6454 24.0625 43.0884 24.0625 43.5417C24.0625 44.1495 23.821 44.7324 23.3913 45.1621C22.9615 45.5919 22.3786 45.8333 21.7708 45.8333ZM40.1041 45.8333C39.6509 45.8333 39.2078 45.6989 38.831 45.4471C38.4541 45.1953 38.1604 44.8374 37.9869 44.4187C37.8135 43.9999 37.7681 43.5391 37.8565 43.0946C37.9449 42.65 38.1632 42.2417 38.4837 41.9212C38.8042 41.6007 39.2125 41.3825 39.6571 41.294C40.1016 41.2056 40.5624 41.251 40.9811 41.4244C41.3999 41.5979 41.7578 41.8916 42.0096 42.2685C42.2614 42.6454 42.3958 43.0884 42.3958 43.5417C42.3958 44.1495 42.1544 44.7324 41.7246 45.1621C41.2948 45.5919 40.7119 45.8333 40.1041 45.8333Z" fill="white"/>
</g>
<defs>
<filter id="filter0_i_61_162" x="0" y="0" width="55" height="59" filterUnits="userSpaceOnUse" color-interpolation-filters="sRGB">
<feFlood flood-opacity="0" result="BackgroundImageFix"/>
<feBlend mode="normal" in="SourceGraphic" in2="BackgroundImageFix" result="shape"/>
<feColorMatrix in="SourceAlpha" type="matrix" values="0 0 0 0 0 0 0 0 0 0 0 0 0 0 0 0 0 0 127 0" result="hardAlpha"/>
<feOffset dy="4"/>
<feGaussianBlur stdDeviation="2"/>
<feComposite in2="hardAlpha" operator="arithmetic" k2="-1" k3="1"/>
<feColorMatrix type="matrix" values="0 0 0 0 0 0 0 0 0 0 0 0 0 0 0 0 0 0 0.25 0"/>
<feBlend mode="normal" in2="shape" result="effect1_innerShadow_61_162"/>
</filter>
</defs>
</svg>
