<svg width="36" height="36" viewBox="0 0 36 36" fill="none" xmlns="http://www.w3.org/2000/svg">
<g filter="url(#filter0_i_99_32)">
<path d="M30.0001 12L21.0001 4.11001C20.1751 3.37208 19.107 2.96411 18.0001 2.96411C16.8932 2.96411 15.8252 3.37208 15.0001 4.11001L6.00014 12C5.52369 12.4261 5.14349 12.9488 4.88485 13.5334C4.62621 14.1179 4.49506 14.7508 4.50014 15.39V28.5C4.50014 29.6935 4.97425 30.8381 5.81816 31.682C6.66208 32.5259 7.80667 33 9.00014 33H18.0001H27.0001C28.1936 33 29.3382 32.5259 30.1821 31.682C31.026 30.8381 31.5001 29.6935 31.5001 28.5V15.375C31.5031 14.7384 31.3709 14.1083 31.1123 13.5265C30.8538 12.9447 30.4747 12.4244 30.0001 12ZM21.0001 30H15.0001V22.5C15.0001 22.1022 15.1582 21.7207 15.4395 21.4394C15.7208 21.158 16.1023 21 16.5001 21H19.5001C19.898 21 20.2795 21.158 20.5608 21.4394C20.8421 21.7207 21.0001 22.1022 21.0001 22.5V30ZM28.5001 28.5C28.5001 28.8978 28.3421 29.2794 28.0608 29.5607C27.7795 29.842 27.398 30 27.0001 30H24.0001V22.5C24.0001 21.3065 23.526 20.1619 22.6821 19.318C21.8382 18.4741 20.6936 18 19.5001 18H16.5001C15.3067 18 14.1621 18.4741 13.3182 19.318C12.4742 20.1619 12.0001 21.3065 12.0001 22.5V30H9.00014C8.60232 30 8.22079 29.842 7.93948 29.5607C7.65818 29.2794 7.50014 28.8978 7.50014 28.5V15.375C7.50041 15.162 7.54603 14.9516 7.63397 14.7576C7.7219 14.5636 7.85014 14.3906 8.01014 14.25L17.0101 6.37501C17.2839 6.13453 17.6358 6.00191 18.0001 6.00191C18.3645 6.00191 18.7164 6.13453 18.9901 6.37501L27.9901 14.25C28.1501 14.3906 28.2784 14.5636 28.3663 14.7576C28.4543 14.9516 28.4999 15.162 28.5001 15.375V28.5Z" fill="white"/>
</g>
<defs>
<filter id="filter0_i_99_32" x="0" y="0" width="36" height="40" filterUnits="userSpaceOnUse" color-interpolation-filters="sRGB">
<feFlood flood-opacity="0" result="BackgroundImageFix"/>
<feBlend mode="normal" in="SourceGraphic" in2="BackgroundImageFix" result="shape"/>
<feColorMatrix in="SourceAlpha" type="matrix" values="0 0 0 0 0 0 0 0 0 0 0 0 0 0 0 0 0 0 127 0" result="hardAlpha"/>
<feOffset dy="4"/>
<feGaussianBlur stdDeviation="2"/>
<feComposite in2="hardAlpha" operator="arithmetic" k2="-1" k3="1"/>
<feColorMatrix type="matrix" values="0 0 0 0 0 0 0 0 0 0 0 0 0 0 0 0 0 0 0.25 0"/>
<feBlend mode="normal" in2="shape" result="effect1_innerShadow_99_32"/>
</filter>
</defs>
</svg>
