<svg width="35" height="35" viewBox="0 0 35 35" fill="none" xmlns="http://www.w3.org/2000/svg">
<g filter="url(#filter0_i_61_156)">
<path d="M31.2703 24.5984C30.9641 24.0516 30.5922 23.5047 30.1766 22.925C29.1876 21.69 28.502 20.2402 28.175 18.6922L27.7156 12.2391C27.4422 7.24062 24.5219 2.1875 18.7141 2.1875H16.2859C10.4781 2.1875 7.53593 7.24063 7.24062 12.2281L6.78124 18.6922C6.45563 20.2539 5.7703 21.7182 4.77968 22.9688C4.40781 23.5375 4.03593 24.0625 3.78437 24.5547C3.51438 24.917 3.35087 25.3475 3.31223 25.7978C3.27358 26.248 3.36134 26.7001 3.56562 27.1031C3.80396 27.5264 4.15508 27.8753 4.5799 28.1108C5.00473 28.3464 5.48659 28.4595 5.97187 28.4375H14.4156C14.2357 28.9331 14.1779 29.4648 14.2471 29.9875C14.3163 30.5102 14.5104 31.0085 14.813 31.4402C15.1156 31.872 15.5178 32.2245 15.9855 32.4678C16.4533 32.7112 16.9727 32.8382 17.5 32.8382C18.0272 32.8382 18.5467 32.7112 19.0145 32.4678C19.4822 32.2245 19.8844 31.872 20.187 31.4402C20.4896 31.0085 20.6837 30.5102 20.7529 29.9875C20.8221 29.4648 20.7642 28.9331 20.5844 28.4375H29.0281C29.5179 28.4553 30.0028 28.3357 30.4281 28.0921C30.8533 27.8485 31.2019 27.4908 31.4344 27.0594C31.6388 26.6746 31.7318 26.2403 31.7028 25.8055C31.6738 25.3708 31.524 24.9527 31.2703 24.5984ZM18.5937 29.5312C18.5937 29.7476 18.5296 29.959 18.4094 30.1389C18.2892 30.3188 18.1184 30.459 17.9186 30.5417C17.7187 30.6245 17.4988 30.6462 17.2866 30.604C17.0744 30.5618 16.8796 30.4576 16.7266 30.3046C16.5736 30.1517 16.4695 29.9568 16.4273 29.7446C16.3851 29.5325 16.4067 29.3125 16.4895 29.1127C16.5723 28.9128 16.7125 28.742 16.8923 28.6218C17.0722 28.5016 17.2837 28.4375 17.5 28.4375C17.7901 28.4375 18.0683 28.5527 18.2734 28.7579C18.4785 28.963 18.5937 29.2412 18.5937 29.5312ZM29.5312 26.0641C29.5312 26.1516 29.3453 26.25 29.0719 26.25H5.97187C5.69843 26.25 5.55624 26.1516 5.51249 26.0641C5.46874 25.9766 5.51249 25.8562 5.62187 25.6812C5.91718 25.1781 6.25624 24.6531 6.60624 24.1281C7.69999 22.5531 8.79374 20.7594 8.95781 18.8453L9.42812 12.3812C9.65781 8.68437 11.5937 4.375 16.2859 4.375H18.7141C23.4062 4.375 25.3422 8.68437 25.5719 12.3922L26.0422 18.8453C26.1734 20.7812 27.3437 22.5531 28.4375 24.1281C28.7875 24.6531 29.1266 25.2219 29.4766 25.7797C29.5114 25.8172 29.535 25.8638 29.5446 25.914C29.5543 25.9643 29.5497 26.0163 29.5312 26.0641Z" fill="white"/>
</g>
<defs>
<filter id="filter0_i_61_156" x="0" y="0" width="35" height="39" filterUnits="userSpaceOnUse" color-interpolation-filters="sRGB">
<feFlood flood-opacity="0" result="BackgroundImageFix"/>
<feBlend mode="normal" in="SourceGraphic" in2="BackgroundImageFix" result="shape"/>
<feColorMatrix in="SourceAlpha" type="matrix" values="0 0 0 0 0 0 0 0 0 0 0 0 0 0 0 0 0 0 127 0" result="hardAlpha"/>
<feOffset dy="4"/>
<feGaussianBlur stdDeviation="2"/>
<feComposite in2="hardAlpha" operator="arithmetic" k2="-1" k3="1"/>
<feColorMatrix type="matrix" values="0 0 0 0 0 0 0 0 0 0 0 0 0 0 0 0 0 0 0.25 0"/>
<feBlend mode="normal" in2="shape" result="effect1_innerShadow_61_156"/>
</filter>
</defs>
</svg>
