<svg width="41" height="41" viewBox="0 0 41 41" fill="none" xmlns="http://www.w3.org/2000/svg">
<path d="M20.5 0.773071C15.2699 0.779026 10.2558 2.8593 6.55758 6.55752C2.85936 10.2557 0.779087 15.2699 0.773132 20.4999C0.773132 25.7706 2.82626 30.7234 6.55282 34.4471C8.37971 36.2852 10.5532 37.7425 12.9472 38.7346C15.3413 39.7267 17.9085 40.2339 20.5 40.2268C25.7301 40.2209 30.7442 38.1406 34.4424 34.4424C38.1407 30.7442 40.2209 25.73 40.2269 20.4999C40.2209 15.2699 38.1407 10.2557 34.4424 6.55752C30.7442 2.8593 25.7301 0.779026 20.5 0.773071ZM20.5 3.58557C24.9844 3.59078 29.2836 5.3745 32.4545 8.54543C35.6255 11.7164 37.4092 16.0156 37.4144 20.4999C37.4106 24.7528 35.7968 28.8466 32.8975 31.9581C30.9836 29.6924 28.4916 27.9876 25.6863 27.0249C26.6602 26.2351 27.4457 25.2381 27.9858 24.1065C28.5258 22.9748 28.8067 21.737 28.8081 20.4831C28.8048 19.3742 28.5828 18.277 28.1547 17.2541C27.7266 16.2312 27.1009 15.3029 26.3135 14.5222C25.526 13.7416 24.5923 13.124 23.5658 12.7048C22.5392 12.2856 21.4401 12.073 20.3313 12.0793C19.2229 12.0826 18.1261 12.3045 17.1036 12.7322C16.0811 13.16 15.153 13.7851 14.3724 14.572C13.5918 15.3588 12.9741 16.2919 12.5546 17.3178C12.135 18.3437 11.922 19.4422 11.9275 20.5506C11.9275 23.1634 13.1538 25.4724 15.0325 27.0137C12.2843 27.9504 9.83305 29.5981 7.92813 31.7893C5.12697 28.6972 3.57872 24.6722 3.58563 20.4999C3.59084 16.0156 5.37456 11.7164 8.54549 8.54543C11.7164 5.3745 16.0156 3.59078 20.5 3.58557ZM20.4016 14.8918C23.4869 14.8918 25.9928 17.4006 25.9928 20.5506C25.9892 21.9994 25.4234 23.3903 24.4145 24.4301C23.4056 25.47 22.0324 26.0776 20.5844 26.1249C20.5028 26.1249 20.4241 26.1081 20.3425 26.1081C20.2722 26.1081 20.2047 26.1221 20.1344 26.1249C18.6795 26.068 17.3038 25.4475 16.2982 24.3946C15.2925 23.3417 14.7358 21.939 14.7456 20.4831C14.7456 17.4006 17.2516 14.8918 20.4016 14.8918ZM20.1316 28.9318C20.1991 28.9346 20.2666 28.9543 20.3341 28.9543H20.4016C20.4634 28.9543 20.5141 28.9346 20.5759 28.9318C22.538 28.9661 24.4695 29.4242 26.238 30.2747C28.0065 31.1252 29.5702 32.348 30.8219 33.8593C27.874 36.1623 24.2408 37.4136 20.5 37.4143C16.6744 37.4221 12.9611 36.1221 9.97563 33.7299C11.2306 32.2548 12.7854 31.0639 14.5366 30.2365C16.2877 29.4092 18.1951 28.9644 20.1316 28.9318Z" fill="white"/>
</svg>
