<svg width="32" height="32" viewBox="0 0 32 32" fill="none" xmlns="http://www.w3.org/2000/svg">
<path d="M5.1858 19.6469L5.18546 19.6466C4.23564 18.6973 3.48218 17.5701 2.96812 16.3295C2.45406 15.0889 2.18947 13.7591 2.18947 12.4162C2.18947 11.0733 2.45406 9.7436 2.96812 8.50299C3.48218 7.26238 4.23564 6.13521 5.18546 5.18588L5.18591 5.18543C7.0241 3.34343 9.49572 2.27202 12.0967 2.18969C14.6977 2.10736 17.2321 3.02033 19.1831 4.74238C21.1341 6.46444 22.3547 8.86588 22.596 11.457C22.8373 14.048 22.0811 16.6336 20.4816 18.6862L20.21 19.0347L20.5224 19.3471L27.6097 26.4344C27.7598 26.5913 27.8428 26.8006 27.8409 27.0178C27.839 27.2363 27.7514 27.4453 27.5969 27.5998C27.4424 27.7543 27.2333 27.8419 27.0148 27.8438C26.7977 27.8457 26.5884 27.7627 26.4315 27.6126L19.3442 20.5254L19.0318 20.2129L18.6833 20.4846C16.7187 22.016 14.262 22.7762 11.7759 22.6219C9.28978 22.4676 6.94589 21.4095 5.1858 19.6469ZM11.5758 3.90157C9.98413 4.05836 8.47614 4.65707 7.21733 5.61946V5.51554L6.36483 6.36296C5.56665 7.1564 4.93398 8.10044 4.50354 9.14031C4.0732 10.1799 3.85355 11.2946 3.85733 12.4198C3.85782 14.3992 4.54451 16.3173 5.80046 17.8473C7.05658 19.3775 8.8044 20.4248 10.7461 20.8108C12.6879 21.1968 14.7034 20.8976 16.4492 19.9642C18.1951 19.0308 19.5634 17.521 20.3208 15.6919C21.0783 13.8628 21.1782 11.8277 20.6034 9.93323C20.0286 8.03878 18.8148 6.40222 17.1687 5.30239C15.5225 4.20256 13.546 3.70751 11.5758 3.90157Z" fill="white" stroke="black"/>
</svg>
