<svg width="37" height="37" viewBox="0 0 37 37" fill="none" xmlns="http://www.w3.org/2000/svg">
<rect x="0.5" y="0.5" width="36" height="36" stroke="black"/>
<path d="M18.5 11.6203H4.14053C3.98868 11.6201 3.83955 11.58 3.70804 11.5041C3.57654 11.4282 3.46728 11.3191 3.39118 11.1877C3.31509 11.0563 3.27484 10.9072 3.27445 10.7553C3.27406 10.6035 3.31355 10.4542 3.38896 10.3224L6.84095 4.2781C6.91674 4.14565 7.02614 4.03555 7.1581 3.95891C7.29006 3.88227 7.43991 3.84181 7.59251 3.84161H18.5C18.73 3.84161 18.9506 3.93298 19.1132 4.09561C19.2758 4.25824 19.3672 4.47881 19.3672 4.7088C19.3672 4.93879 19.2758 5.15937 19.1132 5.322C18.9506 5.48462 18.73 5.57599 18.5 5.57599H8.09721L5.63498 9.88591H18.5C18.73 9.88591 18.9506 9.97727 19.1132 10.1399C19.2758 10.3025 19.3672 10.5231 19.3672 10.7531C19.3672 10.9831 19.2758 11.2037 19.1132 11.3663C18.9506 11.5289 18.73 11.6203 18.5 11.6203Z" fill="white"/>
<path d="M32.8595 11.6203H18.5C18.27 11.6203 18.0494 11.5289 17.8868 11.3663C17.7242 11.2037 17.6328 10.9831 17.6328 10.7531C17.6328 10.5231 17.7242 10.3025 17.8868 10.1399C18.0494 9.97727 18.27 9.88591 18.5 9.88591H31.365L28.9028 5.57599H18.5C18.27 5.57599 18.0494 5.48462 17.8868 5.322C17.7242 5.15937 17.6328 4.93879 17.6328 4.7088C17.6328 4.47881 17.7242 4.25824 17.8868 4.09561C18.0494 3.93298 18.27 3.84161 18.5 3.84161H29.4058C29.5584 3.84181 29.7082 3.88227 29.8402 3.95891C29.9721 4.03555 30.0815 4.14565 30.1573 4.2781L33.6122 10.3218C33.6876 10.4536 33.7271 10.6029 33.7267 10.7547C33.7263 10.9066 33.6861 11.0557 33.61 11.1871C33.5339 11.3185 33.4246 11.4276 33.2931 11.5035C33.1616 11.5795 33.0125 11.6195 32.8606 11.6197L32.8595 11.6203ZM7.73069 18.0762C6.54895 18.0748 5.41601 17.6048 4.58039 16.7692C3.74478 15.9335 3.27472 14.8006 3.27335 13.6189V10.7531C3.27335 10.5231 3.36471 10.3025 3.52734 10.1399C3.68997 9.97727 3.91054 9.88591 4.14053 9.88591C4.37053 9.88591 4.5911 9.97727 4.75373 10.1399C4.91636 10.3025 5.00772 10.5231 5.00772 10.7531V13.6194C5.00246 13.9803 5.069 14.3387 5.20347 14.6736C5.33794 15.0085 5.53765 15.3134 5.79099 15.5705C6.04434 15.8275 6.34626 16.0317 6.67921 16.171C7.01215 16.3103 7.36948 16.3821 7.7304 16.3821C8.09132 16.3821 8.44865 16.3103 8.78159 16.171C9.11454 16.0317 9.41646 15.8275 9.66981 15.5705C9.92315 15.3134 10.1229 15.0085 10.2573 14.6736C10.3918 14.3387 10.4583 13.9803 10.4531 13.6194V10.7531C10.4531 10.5231 10.5444 10.3025 10.7071 10.1399C10.8697 9.97727 11.0903 9.88591 11.3203 9.88591C11.5503 9.88591 11.7708 9.97727 11.9335 10.1399C12.0961 10.3025 12.1875 10.5231 12.1875 10.7531V13.6194C12.1861 14.801 11.7161 15.9338 10.8806 16.7693C10.0451 17.6048 8.91227 18.0748 7.73069 18.0762Z" fill="white"/>
<path d="M14.9104 18.0762C13.7287 18.0748 12.5957 17.6048 11.7601 16.7692C10.9245 15.9336 10.4544 14.8006 10.4531 13.6189V10.7531C10.4531 10.5231 10.5444 10.3025 10.7071 10.1399C10.8697 9.97729 11.0903 9.88593 11.3203 9.88593C11.5502 9.88593 11.7708 9.97729 11.9334 10.1399C12.0961 10.3025 12.1874 10.5231 12.1874 10.7531V13.6195C12.1822 13.9803 12.2487 14.3387 12.3832 14.6736C12.5177 15.0086 12.7174 15.3134 12.9707 15.5705C13.2241 15.8275 13.526 16.0317 13.8589 16.171C14.1919 16.3103 14.5492 16.3821 14.9101 16.3821C15.271 16.3821 15.6284 16.3103 15.9613 16.171C16.2943 16.0317 16.5962 15.8275 16.8495 15.5705C17.1029 15.3134 17.3026 15.0086 17.4371 14.6736C17.5715 14.3387 17.6381 13.9803 17.6328 13.6195V10.7531C17.6328 10.5231 17.7242 10.3025 17.8868 10.1399C18.0494 9.97729 18.27 9.88593 18.5 9.88593C18.73 9.88593 18.9506 9.97729 19.1132 10.1399C19.2758 10.3025 19.3672 10.5231 19.3672 10.7531V13.6195C19.3658 14.801 18.8958 15.9338 18.0603 16.7693C17.2248 17.6049 16.092 18.0748 14.9104 18.0762Z" fill="white"/>
<path d="M22.0896 18.0762C20.9079 18.0748 19.775 17.6048 18.9395 16.7691C18.104 15.9335 17.634 14.8006 17.6328 13.6189V10.7531C17.6328 10.5231 17.7242 10.3025 17.8868 10.1399C18.0494 9.97729 18.27 9.88593 18.5 9.88593C18.73 9.88593 18.9506 9.97729 19.1132 10.1399C19.2758 10.3025 19.3672 10.5231 19.3672 10.7531V13.6195C19.3619 13.9803 19.4285 14.3387 19.5629 14.6736C19.6974 15.0086 19.8971 15.3134 20.1505 15.5705C20.4038 15.8275 20.7057 16.0317 21.0387 16.171C21.3716 16.3103 21.7289 16.3821 22.0899 16.3821C22.4508 16.3821 22.8081 16.3103 23.1411 16.171C23.474 16.0317 23.7759 15.8275 24.0293 15.5705C24.2826 15.3134 24.4823 15.0086 24.6168 14.6736C24.7513 14.3387 24.8178 13.9803 24.8125 13.6195V10.7531C24.8125 10.5231 24.9039 10.3025 25.0665 10.1399C25.2292 9.97729 25.4497 9.88593 25.6797 9.88593C25.9097 9.88593 26.1303 9.97729 26.2929 10.1399C26.4556 10.3025 26.5469 10.5231 26.5469 10.7531V13.6195C26.5454 14.8011 26.0753 15.9339 25.2397 16.7694C24.4041 17.6049 23.2712 18.0748 22.0896 18.0762Z" fill="white"/>
<path d="M29.2693 18.0762C28.0876 18.0748 26.9548 17.6048 26.1192 16.7691C25.2837 15.9335 24.8138 14.8006 24.8126 13.6189V10.7531C24.8126 10.5231 24.9039 10.3025 25.0666 10.1399C25.2292 9.97729 25.4498 9.88593 25.6797 9.88593C25.9097 9.88593 26.1303 9.97729 26.2929 10.1399C26.4556 10.3025 26.5469 10.5231 26.5469 10.7531V13.6195C26.5417 13.9803 26.6082 14.3387 26.7427 14.6736C26.8772 15.0086 27.0769 15.3134 27.3302 15.5705C27.5836 15.8275 27.8855 16.0317 28.2184 16.171C28.5514 16.3103 28.9087 16.3821 29.2696 16.3821C29.6305 16.3821 29.9879 16.3103 30.3208 16.171C30.6538 16.0317 30.9557 15.8275 31.209 15.5705C31.4624 15.3134 31.6621 15.0086 31.7965 14.6736C31.931 14.3387 31.9976 13.9803 31.9923 13.6195V10.7531C31.9923 10.5231 32.0837 10.3025 32.2463 10.1399C32.4089 9.97729 32.6295 9.88593 32.8595 9.88593C33.0895 9.88593 33.31 9.97729 33.4727 10.1399C33.6353 10.3025 33.7267 10.5231 33.7267 10.7531V13.6195C33.7251 14.8011 33.255 15.9339 32.4194 16.7694C31.5838 17.6049 30.451 18.0748 29.2693 18.0762Z" fill="white"/>
<path d="M25.6792 11.6203C25.4928 11.6203 25.3114 11.5602 25.1619 11.449C25.0124 11.3378 24.9026 11.1813 24.849 11.0029L23.0314 4.95859C22.965 4.73833 22.9889 4.50075 23.0978 4.29812C23.2066 4.09548 23.3915 3.94439 23.6118 3.87807C23.832 3.81176 24.0696 3.83566 24.2723 3.94451C24.4749 4.05336 24.626 4.23825 24.6923 4.45851L26.5099 10.5028C26.5762 10.7227 26.5525 10.9599 26.4442 11.1623C26.3358 11.3648 26.1515 11.516 25.9318 11.5827C25.85 11.6079 25.7648 11.6206 25.6792 11.6203ZM11.3209 11.6203C11.236 11.6205 11.1517 11.608 11.0705 11.5833C10.8508 11.5165 10.6666 11.3653 10.5582 11.1629C10.4498 10.9604 10.4261 10.7233 10.4924 10.5034L12.3077 4.45851C12.374 4.23825 12.5251 4.05336 12.7278 3.94451C12.8281 3.89061 12.9381 3.857 13.0514 3.8456C13.1647 3.8342 13.2792 3.84524 13.3882 3.87807C13.4973 3.91091 13.5988 3.9649 13.687 4.03698C13.7752 4.10905 13.8483 4.19778 13.9022 4.29812C13.9561 4.39845 13.9897 4.50842 14.0011 4.62175C14.0125 4.73507 14.0015 4.84953 13.9687 4.95859L12.151 11.0023C12.0975 11.1809 11.9878 11.3374 11.8382 11.4487C11.6887 11.5601 11.5073 11.6202 11.3209 11.6203ZM18.5 11.6203C18.27 11.6203 18.0494 11.529 17.8868 11.3663C17.7242 11.2037 17.6328 10.9831 17.6328 10.7531V4.70884C17.6328 4.47885 17.7242 4.25827 17.8868 4.09564C18.0494 3.93302 18.27 3.84165 18.5 3.84165C18.73 3.84165 18.9506 3.93302 19.1132 4.09564C19.2758 4.25827 19.3672 4.47885 19.3672 4.70884V10.7531C19.3672 10.9831 19.2758 11.2037 19.1132 11.3663C18.9506 11.529 18.73 11.6203 18.5 11.6203ZM18.5 33.1584H5.59857C5.36858 33.1584 5.14801 33.067 4.98538 32.9044C4.82275 32.7418 4.73138 32.5212 4.73138 32.2912V16.5026C4.73138 16.2726 4.82275 16.052 4.98538 15.8894C5.14801 15.7268 5.36858 15.6354 5.59857 15.6354C5.82856 15.6354 6.04914 15.7268 6.21177 15.8894C6.3744 16.052 6.46576 16.2726 6.46576 16.5026V31.424H18.5C18.73 31.424 18.9506 31.5154 19.1132 31.678C19.2758 31.8406 19.3672 32.0612 19.3672 32.2912C19.3672 32.5212 19.2758 32.7418 19.1132 32.9044C18.9506 33.067 18.73 33.1584 18.5 33.1584Z" fill="white"/>
<path d="M31.4014 33.1583H18.5C18.27 33.1583 18.0494 33.067 17.8868 32.9044C17.7242 32.7417 17.6328 32.5211 17.6328 32.2912C17.6328 32.0612 17.7242 31.8406 17.8868 31.678C18.0494 31.5153 18.27 31.424 18.5 31.424H30.5343V16.5026C30.5343 16.2726 30.6256 16.052 30.7882 15.8894C30.9509 15.7267 31.1714 15.6354 31.4014 15.6354C31.6314 15.6354 31.852 15.7267 32.0146 15.8894C32.1773 16.052 32.2686 16.2726 32.2686 16.5026V32.2912C32.2686 32.5211 32.1773 32.7417 32.0146 32.9044C31.852 33.067 31.6314 33.1583 31.4014 33.1583Z" fill="white"/>
<path d="M25.3687 32.9415C25.1387 32.9415 24.9181 32.8502 24.7555 32.6876C24.5929 32.5249 24.5015 32.3043 24.5015 32.0744V22.9024H12.4985V32.0119C12.4985 32.2419 12.4071 32.4625 12.2445 32.6251C12.0819 32.7877 11.8613 32.8791 11.6313 32.8791C11.4013 32.8791 11.1807 32.7877 11.0181 32.6251C10.8555 32.4625 10.7641 32.2419 10.7641 32.0119V22.0352C10.7641 21.8052 10.8555 21.5847 11.0181 21.422C11.1807 21.2594 11.4013 21.168 11.6313 21.168H25.3687C25.5987 21.168 25.8193 21.2594 25.9819 21.422C26.1445 21.5847 26.2359 21.8052 26.2359 22.0352V32.0744C26.2359 32.3043 26.1445 32.5249 25.9819 32.6876C25.8193 32.8502 25.5987 32.9415 25.3687 32.9415Z" fill="white"/>
</svg>
