<svg width="45" height="45" viewBox="0 0 45 45" fill="none" xmlns="http://www.w3.org/2000/svg">
<g filter="url(#filter0_i_71_794)">
<path d="M22.5001 2.77295C17.27 2.7789 12.2559 4.85918 8.55764 8.55739C4.85942 12.2556 2.77915 17.2698 2.77319 22.4998C2.77319 27.7704 4.82632 32.7233 8.55288 36.447C10.3798 38.2851 12.5532 39.7424 14.9473 40.7345C17.3414 41.7266 19.9086 42.2338 22.5001 42.2267C27.7301 42.2207 32.7443 40.1405 36.4425 36.4423C40.1407 32.744 42.221 27.7299 42.2269 22.4998C42.221 17.2698 40.1407 12.2556 36.4425 8.55739C32.7443 4.85918 27.7301 2.7789 22.5001 2.77295ZM22.5001 5.58545C26.9844 5.59066 31.2837 7.37438 34.4546 10.5453C37.6255 13.7162 39.4092 18.0155 39.4144 22.4998C39.4106 26.7527 37.7968 30.8465 34.8976 33.9579C32.9837 31.6923 30.4916 29.9875 27.6863 29.0248C28.6602 28.235 29.4458 27.238 29.9858 26.1063C30.5259 24.9747 30.8068 23.7369 30.8082 22.4829C30.8049 21.3741 30.5828 20.2768 30.1547 19.254C29.7267 18.2311 29.101 17.3028 28.3135 16.5221C27.5261 15.7415 26.5924 15.1238 25.5658 14.7046C24.5393 14.2854 23.4401 14.0729 22.3313 14.0792C21.223 14.0825 20.1262 14.3044 19.1037 14.7321C18.0812 15.1598 17.1531 15.785 16.3725 16.5719C15.5919 17.3587 14.9742 18.2918 14.5546 19.3177C14.1351 20.3436 13.922 21.4421 13.9276 22.5504C13.9276 25.1633 15.1538 27.4723 17.0326 29.0136C14.2843 29.9502 11.8331 31.598 9.92819 33.7892C7.12703 30.6971 5.57878 26.6721 5.58569 22.4998C5.5909 18.0155 7.37462 13.7162 10.5456 10.5453C13.7165 7.37438 18.0157 5.59066 22.5001 5.58545ZM22.4016 16.8917C25.4869 16.8917 27.9929 19.4004 27.9929 22.5504C27.9893 23.9993 27.4234 25.3902 26.4145 26.43C25.4056 27.4698 24.0325 28.0775 22.5844 28.1248C22.5029 28.1248 22.4241 28.1079 22.3426 28.1079C22.2723 28.1079 22.2048 28.122 22.1344 28.1248C20.6796 28.0679 19.3039 27.4474 18.2982 26.3945C17.2926 25.3416 16.7358 23.9389 16.7457 22.4829C16.7457 19.4004 19.2516 16.8917 22.4016 16.8917ZM22.1316 30.9317C22.1991 30.9345 22.2666 30.9542 22.3341 30.9542H22.4016C22.4635 30.9542 22.5141 30.9345 22.576 30.9317C24.5381 30.966 26.4695 31.4241 28.238 32.2746C30.0065 33.1251 31.5702 34.3479 32.8219 35.8592C29.8741 38.1622 26.2409 39.4135 22.5001 39.4142C18.6745 39.4219 14.9611 38.122 11.9757 35.7298C13.2306 34.2546 14.7855 33.0637 16.5366 32.2364C18.2878 31.4091 20.1951 30.9643 22.1316 30.9317Z" fill="white"/>
</g>
<defs>
<filter id="filter0_i_71_794" x="0" y="0" width="45" height="49" filterUnits="userSpaceOnUse" color-interpolation-filters="sRGB">
<feFlood flood-opacity="0" result="BackgroundImageFix"/>
<feBlend mode="normal" in="SourceGraphic" in2="BackgroundImageFix" result="shape"/>
<feColorMatrix in="SourceAlpha" type="matrix" values="0 0 0 0 0 0 0 0 0 0 0 0 0 0 0 0 0 0 127 0" result="hardAlpha"/>
<feOffset dy="4"/>
<feGaussianBlur stdDeviation="2"/>
<feComposite in2="hardAlpha" operator="arithmetic" k2="-1" k3="1"/>
<feColorMatrix type="matrix" values="0 0 0 0 0 0 0 0 0 0 0 0 0 0 0 0 0 0 0.25 0"/>
<feBlend mode="normal" in2="shape" result="effect1_innerShadow_71_794"/>
</filter>
</defs>
</svg>
