<svg width="16" height="19" viewBox="0 0 16 19" fill="none" xmlns="http://www.w3.org/2000/svg">
<path d="M14.4014 18.1585H1.5C1.27001 18.1585 1.04944 18.0671 0.886806 17.9045C0.724177 17.7418 0.632812 17.5213 0.632812 17.2913C0.632812 17.0613 0.724177 16.8407 0.886806 16.6781C1.04944 16.5155 1.27001 16.4241 1.5 16.4241H13.5343V1.50269C13.5343 1.27269 13.6256 1.05212 13.7882 0.889492C13.9509 0.726863 14.1714 0.635498 14.4014 0.635498C14.6314 0.635498 14.852 0.726863 15.0146 0.889492C15.1773 1.05212 15.2686 1.27269 15.2686 1.50269V17.2913C15.2686 17.5213 15.1773 17.7418 15.0146 17.9045C14.852 18.0671 14.6314 18.1585 14.4014 18.1585Z" fill="white"/>
</svg>
