<svg width="10" height="10" viewBox="0 0 10 10" fill="none" xmlns="http://www.w3.org/2000/svg">
<path d="M4.91047 9.07628C3.72873 9.07491 2.59579 8.60485 1.76017 7.76924C0.924556 6.93362 0.454502 5.80068 0.453125 4.61894V1.75317C0.453125 1.52318 0.54449 1.30261 0.707119 1.13998C0.869748 0.97735 1.09032 0.885986 1.32031 0.885986C1.5503 0.885986 1.77088 0.97735 1.93351 1.13998C2.09614 1.30261 2.1875 1.52318 2.1875 1.75317V4.61952C2.18224 4.9804 2.24878 5.33873 2.38325 5.67367C2.51771 6.00861 2.71743 6.31348 2.97077 6.57054C3.22412 6.82761 3.52604 7.03174 3.85899 7.17108C4.19193 7.31041 4.54926 7.38216 4.91018 7.38216C5.2711 7.38216 5.62843 7.31041 5.96137 7.17108C6.29432 7.03174 6.59624 6.82761 6.84959 6.57054C7.10293 6.31348 7.30264 6.00861 7.43711 5.67367C7.57158 5.33873 7.63812 4.9804 7.63286 4.61952V1.75317C7.63286 1.52318 7.72422 1.30261 7.88685 1.13998C8.04948 0.97735 8.27005 0.885986 8.50005 0.885986C8.73004 0.885986 8.95061 0.97735 9.11324 1.13998C9.27587 1.30261 9.36723 1.52318 9.36723 1.75317V4.61952C9.36586 5.8011 8.89586 6.9339 8.06036 7.7694C7.22485 8.60491 6.09205 9.07491 4.91047 9.07628Z" fill="white"/>
</svg>
