<svg width="17" height="9" viewBox="0 0 17 9" fill="none" xmlns="http://www.w3.org/2000/svg">
<path d="M15.5 8.62022H1.1405C0.98865 8.62003 0.839516 8.57997 0.708012 8.50405C0.576508 8.42812 0.467245 8.319 0.391153 8.18759C0.315061 8.05619 0.274806 7.90711 0.274417 7.75526C0.274028 7.60341 0.313517 7.45413 0.388934 7.32233L3.84092 1.27804C3.91671 1.14559 4.02611 1.03548 4.15807 0.958846C4.29003 0.882207 4.43988 0.841747 4.59248 0.841553H15.5C15.73 0.841553 15.9505 0.932917 16.1132 1.09555C16.2758 1.25818 16.3672 1.47875 16.3672 1.70874C16.3672 1.93873 16.2758 2.1593 16.1132 2.32193C15.9505 2.48456 15.73 2.57593 15.5 2.57593H5.09718L2.63495 6.88585H15.5C15.73 6.88585 15.9505 6.97721 16.1132 7.13984C16.2758 7.30247 16.3672 7.52304 16.3672 7.75304C16.3672 7.98303 16.2758 8.2036 16.1132 8.36623C15.9505 8.52886 15.73 8.62022 15.5 8.62022Z" fill="white"/>
</svg>
