<svg width="23" height="31" viewBox="0 0 23 31" fill="none" xmlns="http://www.w3.org/2000/svg">
<path d="M21.6792 8.62039C21.4929 8.62033 21.3115 8.56025 21.162 8.44904C21.0124 8.33783 20.9027 8.1814 20.849 8.00295L19.0314 1.95865C18.9651 1.73839 18.989 1.50082 19.0978 1.29818C19.2067 1.09554 19.3916 0.944449 19.6118 0.878134C19.8321 0.81182 20.0697 0.835718 20.2723 0.944571C20.475 1.05342 20.6261 1.23832 20.6924 1.45857L22.51 7.50287C22.5763 7.72274 22.5526 7.95992 22.4442 8.16237C22.3358 8.36483 22.1516 8.51603 21.9319 8.58281C21.85 8.60795 21.7648 8.62061 21.6792 8.62039ZM7.32091 8.62039C7.2361 8.62057 7.15172 8.6081 7.07059 8.58338C6.85087 8.51661 6.66661 8.36541 6.55823 8.16295C6.44985 7.9605 6.4262 7.72332 6.49246 7.50345L8.30777 1.45857C8.37409 1.23832 8.52518 1.05342 8.72782 0.944571C8.82815 0.890672 8.93812 0.857064 9.05145 0.845665C9.16477 0.834265 9.27923 0.845299 9.38829 0.878134C9.49735 0.91097 9.59887 0.964965 9.68707 1.03704C9.77526 1.10911 9.84839 1.19784 9.90229 1.29818C9.95619 1.39851 9.9898 1.50848 10.0012 1.62181C10.0126 1.73513 10.0016 1.84959 9.96873 1.95865L8.1511 8.00237C8.09753 8.18093 7.98785 8.33748 7.83831 8.4488C7.68877 8.56012 7.50734 8.62029 7.32091 8.62039ZM14.5001 8.62039C14.2701 8.62039 14.0495 8.52902 13.8869 8.36639C13.7242 8.20376 13.6329 7.98319 13.6329 7.7532V1.7089C13.6329 1.47891 13.7242 1.25833 13.8869 1.09571C14.0495 0.933076 14.2701 0.841712 14.5001 0.841712C14.7301 0.841712 14.9506 0.933076 15.1133 1.09571C15.2759 1.25833 15.3673 1.47891 15.3673 1.7089V7.7532C15.3673 7.98319 15.2759 8.20376 15.1133 8.36639C14.9506 8.52902 14.7301 8.62039 14.5001 8.62039ZM14.5001 30.1584H1.59863C1.36864 30.1584 1.14807 30.0671 0.985439 29.9044C0.822809 29.7418 0.731445 29.5212 0.731445 29.2912V13.5027C0.731445 13.2727 0.822809 13.0521 0.985439 12.8895C1.14807 12.7268 1.36864 12.6355 1.59863 12.6355C1.82863 12.6355 2.0492 12.7268 2.21183 12.8895C2.37446 13.0521 2.46582 13.2727 2.46582 13.5027V28.4241H14.5001C14.7301 28.4241 14.9506 28.5154 15.1133 28.6781C15.2759 28.8407 15.3673 29.0613 15.3673 29.2912C15.3673 29.5212 15.2759 29.7418 15.1133 29.9044C14.9506 30.0671 14.7301 30.1584 14.5001 30.1584Z" fill="white"/>
</svg>
