<svg width="31" height="16" viewBox="0 0 31 16" fill="none" xmlns="http://www.w3.org/2000/svg">
<path d="M29.8596 8.62023H15.5001C15.2701 8.62023 15.0495 8.52886 14.8869 8.36623C14.7243 8.2036 14.6329 7.98303 14.6329 7.75304C14.6329 7.52305 14.7243 7.30247 14.8869 7.13984C15.0495 6.97721 15.2701 6.88585 15.5001 6.88585H28.3651L25.9029 2.57593H15.5001C15.2701 2.57593 15.0495 2.48456 14.8869 2.32193C14.7243 2.15931 14.6329 1.93873 14.6329 1.70874C14.6329 1.47875 14.7243 1.25818 14.8869 1.09555C15.0495 0.932917 15.2701 0.841553 15.5001 0.841553H26.4058C26.5584 0.841747 26.7083 0.882207 26.8403 0.958846C26.9722 1.03548 27.0816 1.14559 27.1574 1.27804L30.6123 7.32176C30.6877 7.45355 30.7272 7.60284 30.7268 7.75468C30.7264 7.90653 30.6862 8.05561 30.6101 8.18702C30.534 8.31842 30.4247 8.42755 30.2932 8.50347C30.1617 8.57939 30.0126 8.61945 29.8607 8.61965L29.8596 8.62023ZM4.73078 15.0761C3.54904 15.0748 2.4161 14.6047 1.58048 13.7691C0.744868 12.9335 0.274815 11.8005 0.273438 10.6188V7.75304C0.273438 7.52305 0.364802 7.30247 0.527431 7.13984C0.69006 6.97721 0.910633 6.88585 1.14062 6.88585C1.37062 6.88585 1.59119 6.97721 1.75382 7.13984C1.91645 7.30247 2.00781 7.52305 2.00781 7.75304V10.6194C2.00255 10.9803 2.06909 11.3386 2.20356 11.6735C2.33803 12.0085 2.53774 12.3133 2.79109 12.5704C3.04443 12.8275 3.34635 13.0316 3.6793 13.1709C4.01224 13.3103 4.36957 13.382 4.73049 13.382C5.09142 13.382 5.44874 13.3103 5.78168 13.1709C6.11463 13.0316 6.41655 12.8275 6.6699 12.5704C6.92324 12.3133 7.12296 12.0085 7.25742 11.6735C7.39189 11.3386 7.45843 10.9803 7.45317 10.6194V7.75304C7.45317 7.52305 7.54454 7.30247 7.70716 7.13984C7.86979 6.97721 8.09037 6.88585 8.32036 6.88585C8.55035 6.88585 8.77092 6.97721 8.93355 7.13984C9.09618 7.30247 9.18755 7.52305 9.18755 7.75304V10.6194C9.18617 11.801 8.71618 12.9338 7.88067 13.7693C7.04516 14.6048 5.91237 15.0748 4.73078 15.0761Z" fill="white"/>
</svg>
