<svg width="10" height="10" viewBox="0 0 10 10" fill="none" xmlns="http://www.w3.org/2000/svg">
<path d="M5.26927 9.07628C4.08758 9.07491 2.9547 8.60483 2.11917 7.7692C1.28365 6.93357 0.813724 5.80062 0.8125 4.61894V1.75317C0.8125 1.52318 0.903866 1.30261 1.06649 1.13998C1.22912 0.97735 1.44969 0.885986 1.67969 0.885986C1.90968 0.885986 2.13025 0.97735 2.29288 1.13998C2.45551 1.30261 2.54687 1.52318 2.54687 1.75317V4.61952C2.54162 4.9804 2.60816 5.33873 2.74262 5.67367C2.87709 6.00861 3.0768 6.31348 3.33015 6.57054C3.58349 6.82761 3.88542 7.03174 4.21836 7.17108C4.55131 7.31041 4.90863 7.38216 5.26956 7.38216C5.63048 7.38216 5.9878 7.31041 6.32075 7.17108C6.65369 7.03174 6.95562 6.82761 7.20896 6.57054C7.46231 6.31348 7.66202 6.00861 7.79649 5.67367C7.93095 5.33873 7.99749 4.9804 7.99224 4.61952V1.75317C7.99224 1.52318 8.0836 1.30261 8.24623 1.13998C8.40886 0.97735 8.62943 0.885986 8.85942 0.885986C9.08941 0.885986 9.30999 0.97735 9.47262 1.13998C9.63524 1.30261 9.72661 1.52318 9.72661 1.75317V4.61952C9.72508 5.80116 9.25496 6.93395 8.41936 7.76944C7.58376 8.60493 6.4509 9.07491 5.26927 9.07628Z" fill="white"/>
</svg>
