<svg width="10" height="10" viewBox="0 0 10 10" fill="none" xmlns="http://www.w3.org/2000/svg">
<path d="M5.08958 9.07628C3.90789 9.07491 2.77501 8.60483 1.93949 7.7692C1.10396 6.93357 0.634037 5.80062 0.632812 4.61894V1.75317C0.632813 1.52318 0.724177 1.30261 0.886806 1.13998C1.04944 0.97735 1.27001 0.885986 1.5 0.885986C1.72999 0.885986 1.95057 0.97735 2.11319 1.13998C2.27582 1.30261 2.36719 1.52318 2.36719 1.75317V4.61952C2.36193 4.9804 2.42847 5.33873 2.56293 5.67367C2.6974 6.00861 2.89711 6.31348 3.15046 6.57054C3.40381 6.82761 3.70573 7.03174 4.03867 7.17108C4.37162 7.31041 4.72894 7.38216 5.08987 7.38216C5.45079 7.38216 5.80811 7.31041 6.14106 7.17108C6.474 7.03174 6.77593 6.82761 7.02927 6.57054C7.28262 6.31348 7.48233 6.00861 7.6168 5.67367C7.75127 5.33873 7.8178 4.9804 7.81255 4.61952V1.75317C7.81255 1.52318 7.90391 1.30261 8.06654 1.13998C8.22917 0.97735 8.44974 0.885986 8.67973 0.885986C8.90973 0.885986 9.1303 0.97735 9.29293 1.13998C9.45556 1.30261 9.54692 1.52318 9.54692 1.75317V4.61952C9.54539 5.80116 9.07527 6.93395 8.23967 7.76944C7.40407 8.60493 6.27122 9.07491 5.08958 9.07628Z" fill="white"/>
</svg>
